<?xml version="1.0" encoding="iso-8859-1"?>
<!-- Generator: Adobe Illustrator 19.0.0, SVG Export Plug-In . SVG Version: 6.00 Build 0)  -->
<svg version="1.1" id="Capa_1" xmlns="http://www.w3.org/2000/svg" xmlns:xlink="http://www.w3.org/1999/xlink" x="0px" y="0px"
	 viewBox="0 0 472 472" style="enable-background:new 0 0 472 472;" xml:space="preserve">
<path style="fill:#94D8E3;" d="M80,44h368l-40,256H120L80,44z"/>
<path style="fill:#84CDD9;" d="M113.976,261.456L120,300h288l34.792-222.688L113.976,261.456z"/>
<path style="fill:#5C8EA1;" d="M414.776,308l49.112-294.68L464,4h-16v7.336L443.888,36H84.112L78.776,4H0v16h65.224l46.608,279.672
	L85.752,404H424v-16H106.248l20-80H414.776z M288,180v48h-48v-48H288z M240,164v-48h48v48H240z M224,228h-48v-48h48V228z M224,244
	v48h-48v-48H224z M240,244h48v48h-48V244z M304,244h48v48h-48V244z M304,228v-48h48v48H304z M368,180h51.888l-8,48H368V180z
	 M368,164v-48h62.56l-8,48H368z M352,164h-48v-48h48V164z M304,100V52h48v48H304z M288,100h-48V52h48V100z M224,100h-48V52h48V100z
	 M224,116v48h-48v-48H224z M160,164h-54.56l-8-48H160V164z M160,180v48h-43.888l-8-48H160z M160,244v48h-33.224l-8-48H160z M368,292
	v-48h41.224l-8,48H368z M433.224,100H368V52h73.224L433.224,100z M160,52v48H94.776l-8-48H160z"/>
<g>
	<circle style="fill:#689CB0;" cx="160" cy="428" r="40"/>
	<circle style="fill:#689CB0;" cx="360" cy="428" r="40"/>
</g>
<g>
	<path style="fill:#F4EFEF;" d="M152,420h16v16h-16V420z"/>
	<path style="fill:#F4EFEF;" d="M352,420h16v16h-16V420z"/>
</g>
<path style="fill:#F2CF77;" d="M420.8,223.088c-2.984-0.881-6.022-1.565-9.096-2.048c-0.68-0.112-1.368-0.224-2.064-0.32
	c-17.392-2.502-35.091,1.572-49.64,11.424c-33.066,22.087-41.967,66.798-19.88,99.864s66.798,41.967,99.864,19.88
	s41.967-66.798,19.88-99.864C450.591,238.141,436.782,227.913,420.8,223.088L420.8,223.088z"/>
<path style="fill:#DEBC66;" d="M400,364c39.764-0.033,71.973-32.295,71.94-72.06c-0.026-31.708-20.792-59.666-51.14-68.852
	c-2.984-0.881-6.022-1.565-9.096-2.048c-0.68-0.112-1.368-0.224-2.064-0.32c-3.193-0.458-6.414-0.699-9.64-0.72L400,364z"/>
<path style="fill:#756969;" d="M392,327.312l-29.656-29.656l11.312-11.312L392,304.688l42.344-42.344l11.312,11.312L392,327.312z"/>
<g>
</g>
<g>
</g>
<g>
</g>
<g>
</g>
<g>
</g>
<g>
</g>
<g>
</g>
<g>
</g>
<g>
</g>
<g>
</g>
<g>
</g>
<g>
</g>
<g>
</g>
<g>
</g>
<g>
</g>
</svg>
